<svg width="147" height="36" viewBox="0 0 147 36" fill="none" xmlns="http://www.w3.org/2000/svg">
<path d="M18 36C27.9411 36 36 27.9411 36 18C36 8.05887 27.9411 0 18 0C8.05887 0 0 8.05887 0 18C0 27.9411 8.05887 36 18 36Z" fill="#3C50E0"/>
<path d="M45.752 23.92V7H49.04L54.92 20.2H54.152L60.032 7H63.296V23.92H59.888V12.424H60.848L55.592 23.92H53.432L48.152 12.424H49.16V23.92H45.752Z" fill="#1C274C"/>
<path d="M72.6549 24.184C70.5429 24.184 68.8949 23.616 67.7109 22.48C66.5269 21.344 65.9349 19.8 65.9349 17.848C65.9349 16.584 66.1829 15.48 66.6789 14.536C67.1909 13.592 67.8949 12.856 68.7909 12.328C69.7029 11.784 70.7669 11.512 71.9829 11.512C73.1829 11.512 74.1829 11.768 74.9829 12.28C75.7989 12.792 76.4069 13.512 76.8069 14.44C77.2229 15.352 77.4309 16.416 77.4309 17.632V18.472H68.9109V16.672H74.7909L74.3829 17.008C74.3829 16 74.1749 15.24 73.7589 14.728C73.3589 14.2 72.7749 13.936 72.0069 13.936C71.1589 13.936 70.5029 14.248 70.0389 14.872C69.5909 15.496 69.3669 16.392 69.3669 17.56V17.944C69.3669 19.128 69.6549 20.008 70.2309 20.584C70.8229 21.16 71.6709 21.448 72.7749 21.448C73.4309 21.448 74.0469 21.368 74.6229 21.208C75.2149 21.032 75.7749 20.76 76.3029 20.392L77.3109 22.792C76.7029 23.24 75.9989 23.584 75.1989 23.824C74.4149 24.064 73.5669 24.184 72.6549 24.184Z" fill="#1C274C"/>
<path d="M85.3479 24.184C83.7639 24.184 82.5719 23.792 81.7719 23.008C80.9719 22.208 80.5719 21.016 80.5719 19.432V14.464H78.2679V11.752H80.5719V8.776L84.1959 7.888V11.752H87.3159V14.464H84.1959V19.24C84.1959 20.008 84.3559 20.536 84.6759 20.824C84.9959 21.112 85.4039 21.256 85.8999 21.256C86.2039 21.256 86.4519 21.24 86.6439 21.208C86.8519 21.16 87.0679 21.096 87.2919 21.016V23.824C86.9879 23.952 86.6679 24.04 86.3319 24.088C85.9959 24.152 85.6679 24.184 85.3479 24.184Z" fill="#1C274C"/>
<path d="M93.9035 24.184C92.8475 24.184 91.9195 23.928 91.1195 23.416C90.3195 22.904 89.6955 22.176 89.2475 21.232C88.7995 20.288 88.5755 19.152 88.5755 17.824C88.5755 16.512 88.7995 15.384 89.2475 14.44C89.6955 13.496 90.3195 12.776 91.1195 12.28C91.9195 11.768 92.8475 11.512 93.9035 11.512C94.8795 11.512 95.7515 11.752 96.5195 12.232C97.3035 12.696 97.8155 13.328 98.0555 14.128H97.7915L98.0795 11.752H101.56C101.512 12.28 101.464 12.816 101.416 13.36C101.384 13.888 101.368 14.408 101.368 14.92V23.92H97.7675L97.7435 21.64H98.0315C97.7755 22.408 97.2635 23.024 96.4955 23.488C95.7275 23.952 94.8635 24.184 93.9035 24.184ZM95.0075 21.448C95.8395 21.448 96.5115 21.152 97.0235 20.56C97.5355 19.968 97.7915 19.056 97.7915 17.824C97.7915 16.592 97.5355 15.688 97.0235 15.112C96.5115 14.536 95.8395 14.248 95.0075 14.248C94.1755 14.248 93.5035 14.536 92.9915 15.112C92.4795 15.688 92.2235 16.592 92.2235 17.824C92.2235 19.056 92.4715 19.968 92.9675 20.56C93.4795 21.152 94.1595 21.448 95.0075 21.448Z" fill="#1C274C"/>
<path d="M104.58 23.92V7H112.476C114.38 7 115.82 7.464 116.796 8.392C117.788 9.304 118.284 10.56 118.284 12.16C118.284 13.744 117.788 15.008 116.796 15.952C115.82 16.88 114.38 17.344 112.476 17.344H108.324V23.92H104.58ZM108.324 14.44H111.996C112.892 14.44 113.556 14.24 113.988 13.84C114.436 13.44 114.66 12.88 114.66 12.16C114.66 11.44 114.436 10.888 113.988 10.504C113.556 10.104 112.892 9.904 111.996 9.904H108.324V14.44Z" fill="#1C274C"/>
<path d="M124.724 24.184C123.668 24.184 122.74 23.928 121.94 23.416C121.14 22.904 120.516 22.176 120.068 21.232C119.62 20.288 119.396 19.152 119.396 17.824C119.396 16.512 119.62 15.384 120.068 14.44C120.516 13.496 121.14 12.776 121.94 12.28C122.74 11.768 123.668 11.512 124.724 11.512C125.7 11.512 126.572 11.752 127.34 12.232C128.124 12.696 128.636 13.328 128.876 14.128H128.612L128.9 11.752H132.38C132.332 12.28 132.284 12.816 132.236 13.36C132.204 13.888 132.188 14.408 132.188 14.92V23.92H128.588L128.564 21.64H128.852C128.596 22.408 128.084 23.024 127.316 23.488C126.548 23.952 125.684 24.184 124.724 24.184ZM125.828 21.448C126.66 21.448 127.332 21.152 127.844 20.56C128.356 19.968 128.612 19.056 128.612 17.824C128.612 16.592 128.356 15.688 127.844 15.112C127.332 14.536 126.66 14.248 125.828 14.248C124.996 14.248 124.324 14.536 123.812 15.112C123.3 15.688 123.044 16.592 123.044 17.824C123.044 19.056 123.292 19.968 123.788 20.56C124.3 21.152 124.98 21.448 125.828 21.448Z" fill="#1C274C"/>
<path d="M134.923 29.368L134.083 26.536C134.835 26.392 135.467 26.224 135.979 26.032C136.507 25.84 136.939 25.584 137.275 25.264C137.611 24.96 137.883 24.56 138.091 24.064L138.691 22.648L138.595 24.04L133.315 11.752H137.131L140.611 20.56H139.867L143.395 11.752H146.995L141.499 24.4C141.099 25.312 140.667 26.064 140.203 26.656C139.755 27.264 139.267 27.744 138.739 28.096C138.211 28.448 137.627 28.72 136.987 28.912C136.363 29.104 135.675 29.256 134.923 29.368Z" fill="#1C274C"/>
</svg>
